<svg id="a2b37d83-abfb-45c7-9d93-57e2616c6703" data-name="Capa 1" xmlns="http://www.w3.org/2000/svg" viewBox="0 0 37.67 13.89"><defs><style>.be5b630a-1e97-4ae1-a827-63ec1d5a1dfb{fill:#d290d7;}</style></defs><title>logo</title><path class="be5b630a-1e97-4ae1-a827-63ec1d5a1dfb" d="M4.6,6.47h0a1.42,1.42,0,0,0,.7,1.22l5.35,3.09a1.41,1.41,0,0,1,0,2.44L5.3,16.31a1.42,1.42,0,0,0-.7,1.22h0a1.4,1.4,0,0,0,2.11,1.22l9.58-5.53a1.4,1.4,0,0,0,0-2.44L6.71,5.25A1.4,1.4,0,0,0,4.6,6.47Z" transform="translate(-4.6 -5.06)"/><path class="be5b630a-1e97-4ae1-a827-63ec1d5a1dfb" d="M18.84,7.39l.32,0h1.15a5,5,0,0,1,1.08.1l.29,0a2.88,2.88,0,0,1,.51.1l.42.13.17.07a1,1,0,0,1,.42.38l.09.26.13.46,0,.33s0,.07,0,.1,0,.07,0,.11V10c0,.18,0,.37,0,.56a5.35,5.35,0,0,1-.07.56l-.11.43-.07.15-.24.41-.11.13a1.71,1.71,0,0,1-.61.44,2.87,2.87,0,0,1-.84.22l-.26,0h-.91v.23a1.77,1.77,0,0,1,0,.23v.32c0,.14,0,.28,0,.43s0,.28,0,.42a2.44,2.44,0,0,0,0,.27,2.17,2.17,0,0,1,0,.26c0,.06,0,.11,0,.15a.66.66,0,0,1,0,.15v.11a3.46,3.46,0,0,0,0,.46,3.39,3.39,0,0,1,0,.45v.11H20l-.57,0a6.25,6.25,0,0,1-.64,0h-.34v-.33a.19.19,0,0,1,0-.08v-1c0-.14,0-.28,0-.42s0-.36,0-.53V10.62c0-.21,0-.43,0-.64V8.18c0-.13,0-.25,0-.37V7.44ZM20.31,9v2.88a.34.34,0,0,0,.16.05h.58l.18,0,.16,0,.12,0,.09-.05a.69.69,0,0,0,.19-.12.61.61,0,0,0,.15-.17l0-.1c0-.07,0-.15.06-.27a1.89,1.89,0,0,0,0-.31v-.12a.28.28,0,0,1,0-.09v-.35c0-.1,0-.2,0-.31a1.25,1.25,0,0,0-.05-.3l0-.11a.76.76,0,0,0-.09-.18l-.06-.09-.12-.11A.67.67,0,0,0,21.58,9L21.31,9a.54.54,0,0,0-.22,0h-.27A1.55,1.55,0,0,0,20.31,9Z" transform="translate(-4.6 -5.06)"/><path class="be5b630a-1e97-4ae1-a827-63ec1d5a1dfb" d="M24.9,5.66l.84-.11a6.13,6.13,0,0,1,0,.72q0,.33.06.66c0,.11,0,.23,0,.34V7.6c0,.12,0,.23,0,.35s0,.24,0,.35,0,.38,0,.58,0,.39,0,.57,0,.43,0,.63,0,.37,0,.55l0,.54c0,.18,0,.38,0,.58v.34a.81.81,0,0,1,0,.16v1.26a.88.88,0,0,0,.38.09h.15l.14,0a5.14,5.14,0,0,1,.55-.06h1.39a3.64,3.64,0,0,0,.57,0,1.08,1.08,0,0,0,0,.22,2.27,2.27,0,0,1,0,.24v.3a3,3,0,0,1,0,.31.85.85,0,0,1-.05.25.19.19,0,0,1-.14.12H28a6.57,6.57,0,0,0-.78,0,6.17,6.17,0,0,1-.75,0h-.77l-.18,0-.3,0h-.71a2,2,0,0,1-.39,0l0-.23c0-.08,0-.16,0-.25v-1c0-.16,0-.32,0-.47V10.46c0-.06,0-.13,0-.19V9.42a1.77,1.77,0,0,0,0-.23v-.6a.76.76,0,0,0,0-.15V8.13c0-.4,0-.79-.05-1.18s0-.78-.05-1.18Z" transform="translate(-4.6 -5.06)"/><path class="be5b630a-1e97-4ae1-a827-63ec1d5a1dfb" d="M29.56,8a3.85,3.85,0,0,0,.48,0,3.85,3.85,0,0,1,.48,0l.41,0h.73l.17,0,.63,0a3.2,3.2,0,0,0,.52,0,3.83,3.83,0,0,1,.6,0h.2c.18,0,.39,0,.63,0l.7,0s.07,0,.09.12l0,.3v.75a.13.13,0,0,1-.08.11h-.08l-.24,0a1,1,0,0,1-.25,0h-.64l.36,1.25a.84.84,0,0,0,.05.17,1.42,1.42,0,0,0,0,.16l.25,1.07.08.47c0,.06,0,.12.05.19a1.33,1.33,0,0,0,0,.19l.28.89a1.48,1.48,0,0,1,.1.27,1.48,1.48,0,0,0,.1.27l.09.25.09.24.2.57.06.18,0,.11v.13a1,1,0,0,0,0,.17l.13.51a.22.22,0,0,0,0,.1l0,.1a.48.48,0,0,1-.19.1l-.3.08-.34,0-.32.06h-.16l-.36.09-.1-.2-.08-.22a.1.1,0,0,1,0-.07.11.11,0,0,0,0-.07l-.24-.76a1.34,1.34,0,0,0-.06-.35c-.05-.13-.09-.26-.12-.37h-1.9a1.35,1.35,0,0,0-.29,0c0,.09-.07.22-.11.39l-.05.25,0,.13,0,.15-.05.27a1.49,1.49,0,0,1-.18.64.54.54,0,0,1-.42.15h-.3a2.5,2.5,0,0,1-.38-.06,1.59,1.59,0,0,1-.33-.09c-.09,0-.14-.09-.14-.13v-.08A1.48,1.48,0,0,1,29.5,16l.09-.38,0-.2.06-.24a2.21,2.21,0,0,1,0-.25l.32-1.55c0-.09,0-.18,0-.26a1.83,1.83,0,0,1,.06-.25l.23-1.08.11-.44.26-1,.12-.48a.61.61,0,0,0,0-.11.5.5,0,0,1,0-.12l.06-.3a.33.33,0,0,0-.14,0h-.48l-.14,0-.53,0-.42,0V8.71c0-.12,0-.26,0-.4A1.21,1.21,0,0,1,29.4,8Zm3.92,5.7a.29.29,0,0,1,0-.1l0-.1-.09-.35c0-.06,0-.12,0-.17s0-.11,0-.18l0-.13,0-.1a.29.29,0,0,1,0-.1l-.1-.42a.57.57,0,0,0,0-.14.32.32,0,0,1,0-.14l-.1-.41a.29.29,0,0,0,0-.1l0-.1-.13-.56,0-.11a.62.62,0,0,1,0-.1l0-.14c0-.07,0-.18-.08-.33a.69.69,0,0,0-.14-.31c0,.07,0,.13,0,.18a1.21,1.21,0,0,1-.05.18L32,11.07c0,.13-.08.26-.12.41a1.54,1.54,0,0,0-.07.42l-.2.9,0,.1a.44.44,0,0,0,0,.1l-.12.65h2Z" transform="translate(-4.6 -5.06)"/><path class="be5b630a-1e97-4ae1-a827-63ec1d5a1dfb" d="M41.87,6.13l.4.06,0,.1a.6.6,0,0,1-.08.19L42,6.7l-.77,1.4c0,.09-.1.18-.16.27a1.51,1.51,0,0,0-.15.28l-1.49,2.6,0,.43a.37.37,0,0,0,0,.11v.1l0,.54c0,.16,0,.32,0,.48a3.87,3.87,0,0,1,0,.48l0,.43a.66.66,0,0,0,0,.15s0,.11,0,.16,0,.11,0,.16a1,1,0,0,1,0,.17v.75l-.57.11h-.45l-.29,0-.27,0h-.33l-.17-.06c0-.21,0-.39,0-.53a4.49,4.49,0,0,1,.06-.48l0-.25a2.44,2.44,0,0,1,0-.27,3.22,3.22,0,0,0,0-.33v-.22a1.8,1.8,0,0,1,0-.22l0-.42a1,1,0,0,1,0-.17V12a.28.28,0,0,0,0-.09,2,2,0,0,0-.1-.6,4.08,4.08,0,0,0-.29-.6l-.2-.38a.76.76,0,0,0-.09-.18,1.14,1.14,0,0,1-.1-.19l-.11-.18a.83.83,0,0,1-.08-.12.5.5,0,0,0-.08-.14l-.15-.28a2.32,2.32,0,0,1-.18-.39l0-.12L36,8.42l-.19-.36-.21-.38c-.07-.12-.14-.24-.21-.34l-.07-.06c-.06-.06-.11-.1-.14-.1h-.43l-.51,0H34a1.06,1.06,0,0,0-.27,0c0-.21,0-.44,0-.7s0-.47,0-.65l.29,0,.23,0h1.58l.4,0H37l.67,1.46L38,8a.38.38,0,0,0,.06.13c0,.05.05.09.07.14l.18.36.28.52c.09.17.2.35.31.52l.14-.28A2.32,2.32,0,0,0,39.24,9c0-.13.11-.27.17-.39l.23-.49c.09-.2.17-.39.25-.59A4.48,4.48,0,0,1,40.18,7l.39-.74a.64.64,0,0,1,.35-.13,4.34,4.34,0,0,1,.57,0A2.12,2.12,0,0,1,41.87,6.13Z" transform="translate(-4.6 -5.06)"/></svg>