<svg xmlns="http://www.w3.org/2000/svg" viewBox="0 0 37.67 13.89"><defs><style>.f9b28771-0885-485a-8835-8e4645113fd4{fill:#d290d7;}</style></defs><title>ac_logo_hzRecurso 21</title><g id="f1d6877f-f37f-4707-871e-4e08a151d8dd" data-name="Capa 2"><g id="a4270f4c-7f02-4333-b9ec-f8456f02a320" data-name="Capa 1"><path class="f9b28771-0885-485a-8835-8e4645113fd4" d="M0,1.41H0A1.4,1.4,0,0,0,.71,2.63L6.05,5.72a1.41,1.41,0,0,1,0,2.45L.71,11.26A1.4,1.4,0,0,0,0,12.48H0A1.42,1.42,0,0,0,2.12,13.7L11.7,8.17a1.42,1.42,0,0,0,0-2.45L2.12.19A1.42,1.42,0,0,0,0,1.41Z"/><path class="f9b28771-0885-485a-8835-8e4645113fd4" d="M14.25,2.34l.31,0,.36,0h.79a5.52,5.52,0,0,1,1.08.1l.29,0a4.19,4.19,0,0,1,.51.1l.42.13.17.07a1,1,0,0,1,.42.39l.1.25.12.47,0,.32a.52.52,0,0,1,0,.11.37.37,0,0,1,0,.11V5c0,.19,0,.37,0,.56a3.43,3.43,0,0,1-.07.56l-.1.43-.08.16-.24.41-.1.13a2,2,0,0,1-.62.44,3.21,3.21,0,0,1-.84.22l-.26,0h-.91v.24a1.62,1.62,0,0,1,0,.22V8.7c0,.15,0,.29,0,.43s0,.28,0,.43a2.46,2.46,0,0,0,0,.26c0,.09,0,.18,0,.26v.15a.76.76,0,0,1,0,.15v.11c0,.16,0,.32,0,.46a3.4,3.4,0,0,1,0,.45v.11h-.33l-.57,0a6.25,6.25,0,0,1-.64,0h-.33v-.24s0-.06,0-.08,0-.06,0-.09v-1c0-.13,0-.27,0-.42V9.24c0-.16,0-.34,0-.54V6.2c0-.22,0-.43,0-.64V3.12c0-.12,0-.25,0-.37V2.38Zm1.46,1.59V6.81a.34.34,0,0,0,.16,0h.2l.3,0h.26l.16,0,.12,0,.1,0,.19-.13a.61.61,0,0,0,.14-.17l0-.1q0-.09.06-.27a1.69,1.69,0,0,0,0-.3V5.61s0-.06,0-.09,0-.06,0-.09V5.16c0-.09,0-.2,0-.31a1.36,1.36,0,0,0,0-.3l0-.11a.71.71,0,0,0-.08-.18l-.06-.08-.12-.11A.38.38,0,0,0,17,4l-.26-.09-.22,0h-.27A1.34,1.34,0,0,0,15.71,3.93Z"/><path class="f9b28771-0885-485a-8835-8e4645113fd4" d="M20.31.6l.84-.1c0,.25,0,.49,0,.71a5.16,5.16,0,0,0,0,.67,1.84,1.84,0,0,1,0,.33v.34c0,.11,0,.23,0,.35s0,.23,0,.34,0,.38,0,.58,0,.39,0,.58,0,.43,0,.62,0,.38,0,.56,0,.36,0,.54,0,.37,0,.58v.5a.91.91,0,0,0,0,.17V8.45a.81.81,0,0,0,.39.1h.14l.14,0,.55-.06h1.4l.56,0s0,.11,0,.21,0,.19,0,.24v.3c0,.12,0,.22,0,.32a.84.84,0,0,1-.06.24.2.2,0,0,1-.14.13h-.39l-.42,0a6.53,6.53,0,0,0-.78.05c-.25,0-.5,0-.76,0h-.77A.62.62,0,0,1,21,10l-.3,0H20l-.4,0a1,1,0,0,0,0-.24,2.12,2.12,0,0,1,0-.24V8.94c0-.16,0-.32,0-.48V5.4a1.11,1.11,0,0,1,0-.19,1.21,1.21,0,0,1,0-.19V4.59a1.69,1.69,0,0,1,0-.23v-1a.76.76,0,0,1,0-.15V3.08c0-.4,0-.8,0-1.19s0-.78,0-1.18Z"/><path class="f9b28771-0885-485a-8835-8e4645113fd4" d="M25,2.91a3.87,3.87,0,0,0,.48,0l.48,0,.41,0h.9l.64,0a3.28,3.28,0,0,0,.52,0,3.73,3.73,0,0,1,.59,0h.21l.62,0,.71,0s.07,0,.08.13a1.23,1.23,0,0,1,0,.29c0,.11,0,.23,0,.34v.25a.91.91,0,0,1,0,.17s0,.08-.08.11h-.08l-.24,0A1,1,0,0,1,30,4h-.64l.36,1.26c0,.06,0,.11.05.16s0,.11.05.16l.25,1.07.08.47a1.33,1.33,0,0,1,.05.19c0,.07,0,.13.05.19l.29.89a1.8,1.8,0,0,1,.09.28,2.77,2.77,0,0,0,.1.26l.1.25a2.25,2.25,0,0,1,.08.24l.2.58a.46.46,0,0,1,.06.18l0,.11a.49.49,0,0,1,0,.12,1.21,1.21,0,0,0,0,.18l.12.5,0,.1a.54.54,0,0,1,.05.11.48.48,0,0,1-.19.1l-.3.07-.34.06-.32.05h-.16l-.36.1a1,1,0,0,1-.09-.21l-.09-.21a.25.25,0,0,1,0-.07.24.24,0,0,0,0-.08l-.24-.75a1.35,1.35,0,0,0-.07-.35l-.11-.37H27.16l-.29,0c0,.09-.07.22-.11.38l-.05.26a.35.35,0,0,1,0,.13l0,.14,0,.28a1.37,1.37,0,0,1-.19.63.48.48,0,0,1-.41.16l-.3,0-.38-.05a1.87,1.87,0,0,1-.33-.1c-.1,0-.15-.08-.15-.13v-.07a1.63,1.63,0,0,1,0-.36l.1-.37,0-.21.06-.24a1.84,1.84,0,0,0,.05-.25l.33-1.55c0-.09,0-.17,0-.26a2,2,0,0,1,0-.24l.23-1.08.11-.45.26-1,.12-.48a.23.23,0,0,0,0-.11s0-.07,0-.11l.06-.3a.29.29,0,0,0-.13,0h-.63l-.53,0h-.41V3.65c0-.12,0-.25,0-.4a.89.89,0,0,1,.08-.34Zm3.93,5.7a.42.42,0,0,1,0-.1.43.43,0,0,1,0-.11l-.1-.34c0-.07,0-.13,0-.18s0-.11,0-.17l0-.13,0-.11a.62.62,0,0,1,0-.1L28.45,7a.37.37,0,0,0,0-.14.31.31,0,0,1,0-.13l-.09-.41a.62.62,0,0,0,0-.1.2.2,0,0,1,0-.11l-.14-.56a.17.17,0,0,0,0-.1l0-.1,0-.15c0-.07,0-.18-.07-.32a.53.53,0,0,0-.15-.31c0,.06,0,.12,0,.18a.78.78,0,0,0-.05.18L27.4,6c0,.12-.07.26-.12.4a1.64,1.64,0,0,0-.06.42l-.21.9a.23.23,0,0,1,0,.11A.34.34,0,0,0,27,8l-.12.65h2Z"/><path class="f9b28771-0885-485a-8835-8e4645113fd4" d="M37.27,1.07l.4.06,0,.11a.76.76,0,0,1-.09.18l-.14.23L36.65,3a2.54,2.54,0,0,1-.16.28c-.05.08-.1.18-.15.27L34.85,6.2l0,.43s0,.07,0,.1,0,.06,0,.1l0,.54c0,.16,0,.32,0,.48s0,.32,0,.48l0,.43c0,.06,0,.11,0,.16a1,1,0,0,0,0,.16v.16a.81.81,0,0,1,0,.16v.76l-.56.1H34l-.29,0a1.24,1.24,0,0,1-.27,0l-.2,0-.13,0a.35.35,0,0,1-.17-.06c0-.2,0-.38,0-.53A2,2,0,0,1,33,9.26l0-.26a2.62,2.62,0,0,1,0-.27,3.22,3.22,0,0,0,0-.33V8.18c0-.07,0-.15,0-.22l0-.42a.92.92,0,0,1,0-.16V7a.31.31,0,0,1,0-.1V6.83a1.66,1.66,0,0,0-.1-.59,4.55,4.55,0,0,0-.28-.61l-.21-.37a.82.82,0,0,0-.09-.19l-.1-.18-.11-.18A.54.54,0,0,1,32,4.58L32,4.44l-.16-.27a2.1,2.1,0,0,1-.18-.4l-.05-.12-.14-.29L31.24,3A3.47,3.47,0,0,0,31,2.63c-.07-.13-.14-.24-.21-.35l-.06-.06c-.07-.06-.11-.09-.15-.09h-.43a4.07,4.07,0,0,1-.5,0h-.29l-.26,0c0-.2,0-.44,0-.69s0-.47,0-.65l.29-.05a1,1,0,0,1,.24,0h2.73l.68,1.46.33.78.06.14a.61.61,0,0,1,.07.14l.18.36c.09.16.18.34.28.51l.31.53.15-.29A2.64,2.64,0,0,0,34.65,4a2.78,2.78,0,0,1,.16-.4L35,3.1c.09-.19.17-.39.25-.59a3.81,3.81,0,0,1,.29-.57l.4-.75a.69.69,0,0,1,.35-.13,4.45,4.45,0,0,1,.56,0Z"/></g></g></svg>