<svg id="af6b6349-3b5e-4350-8ca2-951a6356c6b3" data-name="Capa 1" xmlns="http://www.w3.org/2000/svg" viewBox="0 0 81.45 13.89"><defs><style>.ea11316d-6030-4947-92e0-a99474cc3855{fill:#fff;}</style></defs><title>logo3w</title><path class="ea11316d-6030-4947-92e0-a99474cc3855" d="M4.6,6.47h0a1.42,1.42,0,0,0,.7,1.22l5.35,3.09a1.41,1.41,0,0,1,0,2.44L5.3,16.31a1.42,1.42,0,0,0-.7,1.22h0a1.4,1.4,0,0,0,2.11,1.22l9.58-5.53a1.4,1.4,0,0,0,0-2.44L6.71,5.25A1.4,1.4,0,0,0,4.6,6.47Z" transform="translate(-4.6 -5.06)"/><path class="ea11316d-6030-4947-92e0-a99474cc3855" d="M18.6,7.86l.32,0h1.14a4.84,4.84,0,0,1,1.08.1l.29,0A3.21,3.21,0,0,1,22,8l.42.13.17.07a1.11,1.11,0,0,1,.42.38l.09.26.12.46,0,.33s0,.07,0,.11v.74a5.33,5.33,0,0,1,0,.56,5.32,5.32,0,0,1-.06.56l-.11.43-.07.15-.24.41-.11.13a1.8,1.8,0,0,1-.61.44,2.87,2.87,0,0,1-.84.22l-.27,0H20a1.69,1.69,0,0,0,0,.23v.55c0,.14,0,.29,0,.43s0,.28,0,.42a2.44,2.44,0,0,0,0,.27,2.17,2.17,0,0,1,0,.26.66.66,0,0,0,0,.15V16a3.44,3.44,0,0,0,0,.46c0,.15,0,.3,0,.45V17h-.32a5.44,5.44,0,0,0-.57,0,6.4,6.4,0,0,1-.64,0h-.34v-.24a.25.25,0,0,0,0-.09v-.63c0-.14,0-.28,0-.41V15.3c0-.19,0-.36,0-.53s0-.35,0-.54V11.72c0-.21,0-.43,0-.63s0-.42,0-.64V8.28c0-.12,0-.25,0-.37Zm1.46,1.59v2.88a.38.38,0,0,0,.17.05h.58l.17,0,.16,0,.12,0,.1,0,.19-.13a.5.5,0,0,0,.15-.17l0-.1a1.91,1.91,0,0,0,.06-.27,1.25,1.25,0,0,0,0-.31V11a.22.22,0,0,0,0-.09v-.26c0-.1,0-.2,0-.31a2.34,2.34,0,0,0,0-.3l0-.11a.48.48,0,0,0-.08-.18l-.06-.08-.12-.12-.14-.09-.27-.08a.54.54,0,0,0-.22,0h-.27A1.66,1.66,0,0,0,20.06,9.45Z" transform="translate(-4.6 -5.06)"/><path class="ea11316d-6030-4947-92e0-a99474cc3855" d="M24.66,6.13,25.5,6c0,.26,0,.5,0,.72a4.91,4.91,0,0,0,.06.66c0,.11,0,.23,0,.34v.33c0,.12,0,.23,0,.35s0,.24,0,.35,0,.38,0,.58,0,.39,0,.57a4.56,4.56,0,0,1,0,.63c0,.19,0,.37,0,.55s0,.36,0,.54,0,.38,0,.59v.33a.81.81,0,0,1,0,.16V14a.85.85,0,0,0,.38.09h.14l.15,0a5,5,0,0,1,.54-.06h1.4a3.73,3.73,0,0,0,.57,0,2.13,2.13,0,0,0,0,.22,1.15,1.15,0,0,1,0,.24v.3a3,3,0,0,1,0,.31,1.37,1.37,0,0,1-.05.25.19.19,0,0,1-.14.12h-.82a6.57,6.57,0,0,0-.78,0,6.28,6.28,0,0,1-.75,0h-.77l-.18,0-.3,0H24.3a1.9,1.9,0,0,1-.4,0,1,1,0,0,0,0-.23c0-.08,0-.16,0-.25V14c0-.16,0-.32,0-.47V10.93c0-.06,0-.13,0-.19V9.89a1.77,1.77,0,0,0,0-.23v-.6a.76.76,0,0,0,0-.15V8.6c0-.4,0-.79-.05-1.18s0-.78-.05-1.18Z" transform="translate(-4.6 -5.06)"/><path class="ea11316d-6030-4947-92e0-a99474cc3855" d="M29.32,8.43a3.7,3.7,0,0,0,.47,0,4.1,4.1,0,0,1,.49,0l.4,0h.9l.64,0a3.28,3.28,0,0,0,.52,0,3.81,3.81,0,0,1,.59,0h.21l.62,0,.71,0s.07,0,.09.12l0,.3v.75a.13.13,0,0,1-.08.11h-.09l-.24,0a1,1,0,0,1-.24,0H33.7l.36,1.26c0,.05,0,.11,0,.16s0,.1,0,.16l.25,1.07.09.47a1.8,1.8,0,0,0,0,.19c0,.06,0,.13,0,.19l.29.89c0,.09.07.19.1.27a1.43,1.43,0,0,0,.09.27l.1.25a1.35,1.35,0,0,1,.08.24l.21.58a1.84,1.84,0,0,1,.06.18l0,.1v.13a.48.48,0,0,0,0,.17l.12.51,0,.1a.31.31,0,0,0,.05.1.42.42,0,0,1-.2.1,1.6,1.6,0,0,1-.3.08l-.34.06-.32.05h-.15l-.36.09L34,17l-.08-.22a.09.09,0,0,1,0-.07.1.1,0,0,0,0-.07l-.24-.76a1,1,0,0,0-.07-.34c0-.14-.08-.26-.11-.38h-1.9a1.57,1.57,0,0,0-.3.05,3.78,3.78,0,0,0-.1.38l-.05.25L31,16a.8.8,0,0,0,0,.15l-.05.27a1.3,1.3,0,0,1-.19.64.5.5,0,0,1-.41.16l-.3,0a2.32,2.32,0,0,1-.38-.06,1.59,1.59,0,0,1-.33-.09c-.1,0-.14-.09-.14-.13v-.08a1.45,1.45,0,0,1,0-.35c0-.12.07-.25.1-.38l0-.2a2,2,0,0,1,.05-.24l.06-.25.32-1.55c0-.09,0-.18,0-.26a1.14,1.14,0,0,1,.06-.25l.22-1.08.11-.44.27-1,.11-.48a.76.76,0,0,0,0-.11.49.49,0,0,1,0-.12l.06-.3a.28.28,0,0,0-.13,0h-.36l-.12,0H30l-.54,0-.41,0V9.18c0-.12,0-.26,0-.4a1,1,0,0,1,.08-.35Zm3.92,5.7a.3.3,0,0,1,0-.1.36.36,0,0,0,0-.1l-.1-.35c0-.06,0-.12,0-.17s0-.11,0-.18l0-.13a.17.17,0,0,0,0-.1l0-.1-.09-.42a.57.57,0,0,0,0-.14.32.32,0,0,1,0-.14l-.1-.41,0-.1,0-.1L32.45,11l0-.11a.62.62,0,0,1,0-.1l0-.14c0-.07,0-.18-.07-.33a.69.69,0,0,0-.14-.31c0,.07,0,.13,0,.18s0,.12-.05.18l-.3,1.14c0,.13-.07.27-.11.41a1.23,1.23,0,0,0-.07.42l-.2.9,0,.1a.44.44,0,0,0,0,.1l-.12.65h2Z" transform="translate(-4.6 -5.06)"/><path class="ea11316d-6030-4947-92e0-a99474cc3855" d="M41.63,6.6l.39.06,0,.11a1.26,1.26,0,0,1-.08.18l-.15.22L41,8.57c0,.09-.1.18-.15.27a2.54,2.54,0,0,0-.16.28l-1.49,2.6,0,.43v.11a.28.28,0,0,1,0,.1l0,.54c0,.16,0,.32,0,.48a3.85,3.85,0,0,1,0,.48l0,.43v.16s0,.1,0,.15a.81.81,0,0,0,0,.16v.92l-.56.11h-.46l-.28,0-.27,0h-.33l-.17-.06c0-.21,0-.39,0-.53a4.49,4.49,0,0,1,.06-.48l0-.25a2.45,2.45,0,0,1,0-.27c0-.09,0-.2,0-.33s0-.15,0-.22a1.5,1.5,0,0,0,0-.22l0-.42a1,1,0,0,1,0-.17v-.35a.31.31,0,0,1,0-.1s0-.06,0-.09a1.73,1.73,0,0,0-.11-.6,3.5,3.5,0,0,0-.28-.6l-.2-.37-.09-.19a1.14,1.14,0,0,1-.1-.19l-.11-.18a.83.83,0,0,1-.08-.12,1,1,0,0,0-.08-.14l-.15-.28A1.38,1.38,0,0,1,36,9.3l0-.12-.15-.29-.18-.36-.21-.38c-.07-.12-.15-.24-.22-.34l-.06-.06c-.06-.06-.11-.1-.14-.1h-.43l-.51,0h-.29a.94.94,0,0,0-.26,0c0-.21,0-.44,0-.7s0-.47,0-.64l.29-.06.24,0H35.6l.4,0h.77l.67,1.47.34.78a.69.69,0,0,0,0,.13l.08.14.18.36c.08.17.18.34.27.52l.31.53.15-.29A2.32,2.32,0,0,0,39,9.51a3.29,3.29,0,0,1,.17-.39l.23-.49c.08-.2.17-.39.25-.59a3.49,3.49,0,0,1,.29-.58l.39-.74a.64.64,0,0,1,.35-.13,4.17,4.17,0,0,1,.56,0A2.13,2.13,0,0,1,41.63,6.6Z" transform="translate(-4.6 -5.06)"/><path class="ea11316d-6030-4947-92e0-a99474cc3855" d="M45.47,8.34h1.36v1.74H45v1.56c0,.16,0,.31,0,.45s0,.29,0,.42v.21c0,.3,0,.57,0,.8s0,.45,0,.66,0,.44,0,.66,0,.49,0,.79l-.27.06a3.6,3.6,0,0,1-.72.08h-.3a2.17,2.17,0,0,1-.43,0c-.08,0-.12-.05-.12-.11s0-.28,0-.42,0-.27,0-.42,0-.24,0-.36,0-.25,0-.38,0-.17,0-.25v-.24s0-.09,0-.13,0-.1,0-.15v-1.4c0-.13,0-.25,0-.36s0-.21,0-.33v-.34c0-.08,0-.16,0-.24s0-.15,0-.23v-.12a2.37,2.37,0,0,0-.35,0,2.12,2.12,0,0,1-.34,0H42l-.3-.06a.59.59,0,0,1-.23-.14.3.3,0,0,1-.09-.23c0-.16,0-.36,0-.61a5.6,5.6,0,0,1,0-.64l0-.18a.52.52,0,0,1,.29-.06h3.71Z" transform="translate(-4.6 -5.06)"/><path class="ea11316d-6030-4947-92e0-a99474cc3855" d="M45.41,7.38V7l.05-.52a1.76,1.76,0,0,0,0-.19h1.7a.85.85,0,0,0,.23,0,.44.44,0,0,0,.15,0l.2,0h1.13l0,.3c0,.11,0,.22,0,.33s0,.22,0,.33a1.66,1.66,0,0,1,0,.32,2.91,2.91,0,0,0,0,.32v.31a.37.37,0,0,1,0,.11c0,.06,0,.12,0,.19a1.23,1.23,0,0,0,0,.19v.43a.81.81,0,0,0,0,.16.68.68,0,0,0,0,.14v0a.09.09,0,0,1,0,.05.49.49,0,0,0,.17,0h.8a2.61,2.61,0,0,0,.4,0h.41a.41.41,0,0,0,0-.21,2.28,2.28,0,0,0,0-.26V8.12c0-.16,0-.3,0-.43s0-.24,0-.32,0-.14,0-.16a.3.3,0,0,0,0-.1.17.17,0,0,1,0-.1l0-.51a.44.44,0,0,1,.22,0l.48,0,.54,0a2.67,2.67,0,0,1,.41,0c.06,0,.09,0,.1.07a.3.3,0,0,0,0,.11l0,.09s0,.06,0,.08a.17.17,0,0,0,0,.07v.15a.31.31,0,0,1,0,.1s0,.07,0,.1,0,.19,0,.26V8.78a.28.28,0,0,0,0,.1V9c0,.43,0,.88-.06,1.36s0,1,0,1.42V12a.91.91,0,0,1,0,.17v2.54a1.09,1.09,0,0,1,0,.18v.23a.75.75,0,0,1-.2.11l-.25.09-.21.06-.08,0-.34,0h-.27a.19.19,0,0,1-.18-.1.74.74,0,0,1-.1-.26,3,3,0,0,1,0-.33V11.18c0-.13,0-.25,0-.38l0,0a1.85,1.85,0,0,0-.61-.11h-1l-.19,0,0,.13-.07.48a6.28,6.28,0,0,0,0,.64c0,.22,0,.43,0,.61a1.93,1.93,0,0,0,0,.24V13c0,.12,0,.23,0,.34a2.14,2.14,0,0,1-.08.32l-1,.07H47.5a.09.09,0,0,1,0-.09v-.09a1.69,1.69,0,0,1,0-.23,1,1,0,0,0,0-.24s0-.09,0-.19v-.21a1.28,1.28,0,0,1,0-.19.29.29,0,0,1,.05-.17,1.34,1.34,0,0,0,0-.2,1.41,1.41,0,0,1,0-.2c0-.1,0-.29.05-.56a6.26,6.26,0,0,0,.06-.92v-.1a2,2,0,0,0,0-.32,1.87,1.87,0,0,1,0-.32V9.26a2.26,2.26,0,0,1,0-.26,2.46,2.46,0,0,1,0-.28,2.28,2.28,0,0,0,0-.26s0-.08,0-.12a.36.36,0,0,1,0-.11.75.75,0,0,1,0-.2.81.81,0,0,0,0-.2.2.2,0,0,0-.06-.14H45.75a.3.3,0,0,0-.14,0,.35.35,0,0,1-.18,0C45.42,7.63,45.42,7.51,45.41,7.38Z" transform="translate(-4.6 -5.06)"/><path class="ea11316d-6030-4947-92e0-a99474cc3855" d="M58.71,8.61s0,.08,0,.12v.36c0,.15,0,.31,0,.47a2.42,2.42,0,0,1,0,.41c0,.12-.06.18-.1.18H56.05v.51L56,11.83v.05a.07.07,0,0,0,0,0h.77l.66,0,.47,0,.7,0a2.23,2.23,0,0,0,0,.23,1,1,0,0,1,0,.35.56.56,0,0,1-.19.32.76.76,0,0,1-.51.14h-.73l-.27,0h-.33l-.29,0-.25,0H55.7l0,.64a.49.49,0,0,1,0,.12V14s0,.08,0,.13,0,.08,0,.12v.13a.71.71,0,0,0,0,.14,2.35,2.35,0,0,1,0,.26,2.35,2.35,0,0,0,0,.26.57.57,0,0,1,0,.13v.13c0,.06,0,.12,0,.18a.86.86,0,0,0,0,.16v.2a1,1,0,0,0,0,.18l.49,0h4.49c0,.35-.06.77-.11,1.28H58.88l-.72,0q-.37,0-.78,0h-.31c-.62,0-1.33,0-2.11-.07H53.84l-.07-.59.07-.59,0-.34c0-.21,0-.42,0-.64,0,0,0-.08,0-.13s0-.09,0-.13q0-.46,0-.93v-.25c0-.14,0-.27,0-.4v-.91c0-.21,0-.4,0-.58s0-.36,0-.55v-.22c0-.14,0-.27,0-.41s0-.27,0-.42H54l-.45,0h-.23a2.66,2.66,0,0,0,0-.3c0-.08,0-.19,0-.31s0-.29,0-.47,0-.36,0-.57a.71.71,0,0,0,0-.14c0-.05,0-.1,0-.14h3.56c.44,0,.84,0,1.17,0a4.25,4.25,0,0,1,.74.1S58.71,8.57,58.71,8.61Z" transform="translate(-4.6 -5.06)"/><path class="ea11316d-6030-4947-92e0-a99474cc3855" d="M62.52,7.14A2.37,2.37,0,0,1,63,7.2a2.11,2.11,0,0,1,.89.17,1.77,1.77,0,0,1,.68.5l.13.24.05.48c0,.16.07.33.1.5a3,3,0,0,1,0,.52v.48a.26.26,0,0,1-.23.27,2.23,2.23,0,0,1-.55.07l-.36,0-.32-.05-.24-.06c-.07,0-.1,0-.1-.05a3.23,3.23,0,0,1-.09-.59c0-.12,0-.25,0-.37a2.71,2.71,0,0,0,0-.29A.55.55,0,0,0,63,8.74a.39.39,0,0,0-.17-.19.9.9,0,0,0-.37-.07H62.1a.91.91,0,0,0-.47.12l-.06.05a.93.93,0,0,0-.2.3,2.11,2.11,0,0,0-.12.38c0,.13,0,.26-.06.39s0,.26,0,.37v.32s0,.06,0,.09,0,0,0,.08v.13a.49.49,0,0,1,0,.12,8,8,0,0,1,0,.88v.92l0,.51a4.34,4.34,0,0,0,.09.54,1.39,1.39,0,0,0,.19.45l.11.12a.77.77,0,0,0,.56.23,1.24,1.24,0,0,0,.66-.15.88.88,0,0,0,.34-.4,2,2,0,0,0,.13-.58c0-.21,0-.44,0-.67,0-.05,0-.09.16-.11a1.5,1.5,0,0,1,.4-.05,2.5,2.5,0,0,1,.54.07c.17,0,.27.12.28.22l0,.51v.07c0,.16,0,.32,0,.49a2,2,0,0,1-.1.56l0,.14c0,.08-.08.17-.12.24a1.07,1.07,0,0,1-.15.22l-.16.15a2,2,0,0,1-.9.43,5.87,5.87,0,0,1-1.06.1l-.67,0a2.11,2.11,0,0,1-.67-.14l-.29-.12-.23-.12a.75.75,0,0,1-.2-.15L60,14.9l-.12-.18a2.68,2.68,0,0,1-.12-.24.93.93,0,0,1-.1-.26l-.12-.43a5.24,5.24,0,0,1-.08-.53,4.89,4.89,0,0,1,0-.54l0-.51v-.12a.62.62,0,0,1,0-.13,1.77,1.77,0,0,0,0-.24V10.55a2.81,2.81,0,0,1,0-.29,2.53,2.53,0,0,0,0-.28V9.83a1.36,1.36,0,0,1,0-.2,1.5,1.5,0,0,0,0-.2l.12-.79.07-.3A1.48,1.48,0,0,1,60,7.68a2.42,2.42,0,0,1,.62-.33l.24-.07a4.39,4.39,0,0,1,.68-.11c.24,0,.5,0,.77,0Z" transform="translate(-4.6 -5.06)"/><path class="ea11316d-6030-4947-92e0-a99474cc3855" d="M67.87,9.07a2.18,2.18,0,0,1,0,.25v.4a.49.49,0,0,1,0,.12V10l0,.59c0,.16,0,.32,0,.48s0,.32,0,.48l-.06,1.06a1.21,1.21,0,0,0,0,.18.54.54,0,0,1,0,.18,3.87,3.87,0,0,0,0,.48l0,.47v.3q0,.29,0,.69c0,.28,0,.51,0,.7l.09.74h.89l.15,0h.75s0,0,.06,0h1.15l-.25,1.41H68.19l-.3,0a1.69,1.69,0,0,0-.35,0l-.68,0-.32,0h-.72l-.09,0a5.29,5.29,0,0,0,.09-.8c0-.28,0-.55,0-.81V14.27c0-.12,0-.25,0-.38v-1.2a3.4,3.4,0,0,0,0-.42,2.23,2.23,0,0,1,0-.37v-1a2.53,2.53,0,0,0,0-.28v-.24c0-.15,0-.3,0-.45V9.14c0-.09,0-.18,0-.29V8.34s0,0,.07,0h.69l.49,0,.43,0h.27Z" transform="translate(-4.6 -5.06)"/><path class="ea11316d-6030-4947-92e0-a99474cc3855" d="M72.81,6.67a4.64,4.64,0,0,1,.64.17,1.76,1.76,0,0,1,.67.59,2.62,2.62,0,0,1,.35.84,5.47,5.47,0,0,1,.13,1c0,.37,0,.74,0,1.14v1c0,.23,0,.47,0,.71a4.31,4.31,0,0,1-.17,1.28,2,2,0,0,1-.51.84,1.92,1.92,0,0,1-.88.47,4.73,4.73,0,0,1-1.28.15c-.34,0-.65,0-.91,0a3.57,3.57,0,0,1-.72-.13,2.08,2.08,0,0,1-.56-.27,2,2,0,0,1-.46-.43,2.57,2.57,0,0,1-.35-.65,3.2,3.2,0,0,1-.19-.69,6,6,0,0,1-.07-.75c0-.26,0-.52,0-.79v-.26c0-.27,0-.52,0-.76s0-.47,0-.68,0-.21,0-.31,0-.21,0-.3l0-.36a1,1,0,0,1,0-.14l0-.16.11-.35a.91.91,0,0,1,.33-.51,2.7,2.7,0,0,1,.7-.36,5.09,5.09,0,0,1,1-.23,11.84,11.84,0,0,1,1.25-.09A3.82,3.82,0,0,1,72.81,6.67ZM71.59,8.1a.88.88,0,0,0-.53.17.72.72,0,0,0-.25.39,2.15,2.15,0,0,0-.07.6v.88c0,.22,0,.47,0,.73s0,.55,0,.85,0,.63,0,.85a1.09,1.09,0,0,0,.11.52.55.55,0,0,0,.34.27,2.48,2.48,0,0,0,.66.1H72a1.21,1.21,0,0,0,.59-.12A.82.82,0,0,0,73,13a1.83,1.83,0,0,0,.14-.57c0-.23,0-.48,0-.77v-.12c0-.26,0-.52,0-.79s0-.56,0-.87a6.35,6.35,0,0,0-.06-1,1.16,1.16,0,0,0-.19-.52.59.59,0,0,0-.33-.21,2.21,2.21,0,0,0-.48,0h-.43Z" transform="translate(-4.6 -5.06)"/><path class="ea11316d-6030-4947-92e0-a99474cc3855" d="M80.63,8.31a3.25,3.25,0,0,1,0,.39c0,.18,0,.4,0,.65v.54s0,.09,0,.14,0,.1,0,.14v1.21c0,.2,0,.37,0,.53v.68a1.15,1.15,0,0,1,0,.19v.43s0,0,0,0,0,.05,0,.15,0,.32,0,.67v.16c0,.06,0,.11,0,.17a1.27,1.27,0,0,0,0,.2v.93a2.82,2.82,0,0,1,0,.4,2.57,2.57,0,0,1-.06.4h-.91a.91.91,0,0,1-.33-.05A.35.35,0,0,1,79,16l-.83-1.79-.09-.2-.1-.21-.94-2.15v.49s0,.1,0,.15a.66.66,0,0,0,0,.14v1.73c0,.15,0,.3,0,.44s0,.3,0,.45v1.31a.68.68,0,0,1,0,.19A1.59,1.59,0,0,1,77,17c0,.07-.06.11-.14.14a1.14,1.14,0,0,1-.29.06l-.33,0h-.44l-.13,0-.05,0,0-.05v-.2c0-.1,0-.2,0-.3V16a.31.31,0,0,0,0-.1V14.54a.41.41,0,0,0,0-.11s0-.06,0-.1V12.84a1.69,1.69,0,0,1,0-.23v-.3c0-.42,0-.83,0-1.25s0-.83,0-1.25V9.67a.62.62,0,0,1,0-.13c0-.15,0-.29,0-.43s0-.29,0-.44V8.34a2.43,2.43,0,0,1,.38,0H77c.08,0,.17.1.25.28l.25.64.12.33c0,.11.09.23.14.34l.4,1.14.53,1.31.21.46v-.49a.37.37,0,0,1,0-.11v-.32a.62.62,0,0,0,0-.13v-.13a.22.22,0,0,0,0-.08v-.32a1.21,1.21,0,0,0,0-.19v-.18s0-.08,0-.13a.61.61,0,0,1,0-.14v-.46a.91.91,0,0,1,0-.17V9.77a1.09,1.09,0,0,1,0-.18c0-.21,0-.41,0-.6s0-.41,0-.64a.13.13,0,0,1,.09-.13Z" transform="translate(-4.6 -5.06)"/><path class="ea11316d-6030-4947-92e0-a99474cc3855" d="M85.81,14.28a2.85,2.85,0,0,1-.29,0l-.31,0H82.67l-.51.05-.26,0h-.28c-.05,0-.08,0-.08-.07a.62.62,0,0,0,0-.13v-.5a.49.49,0,0,1,0-.12v-.12a.76.76,0,0,1,0-.15c0-.05,0-.1,0-.16l0-.48a.49.49,0,0,1,0-.12s0-.08,0-.12l0-.15a2.93,2.93,0,0,0,0-.41v-.25c0-.2,0-.39,0-.58s0-.39,0-.59v-.17a.15.15,0,0,1,0-.07V9.61a.81.81,0,0,1,0-.16V9.29a6.08,6.08,0,0,1,0-.61c0-.2,0-.39,0-.59V7.65h-.47l-.44,0H80c-.11,0-.17,0-.17-.09s0-.13,0-.21V6.75a.92.92,0,0,1,0-.38A.16.16,0,0,1,80,6.3h1.81l.26,0h.24l.31,0H83l.26,0a.17.17,0,0,1,.1,0l.09,0a.34.34,0,0,0,.14,0h.21a.15.15,0,0,1,.09,0,.15.15,0,0,0,.09,0h.76l.2,0h1.15v.19c0,.18,0,.35,0,.49a3.22,3.22,0,0,1,0,.43.23.23,0,0,1-.07.2.37.37,0,0,1-.2,0H83.59v.09c0,.12,0,.24,0,.37a2.4,2.4,0,0,0,0,.37V8.6a.49.49,0,0,0,0,.12V9.86h.64l.19,0a.63.63,0,0,0,.19,0h.63a2.42,2.42,0,0,1,.39,0h.22c0,.13,0,.27,0,.43a3.75,3.75,0,0,1-.07.52s0,.05-.12.06l-.22.05-1,0-.81,0h-.08v.12a.09.09,0,0,0,0,.05v.16c0,.21,0,.42,0,.62s0,.41,0,.62v.16a.86.86,0,0,0,0,.16v.24a.7.7,0,0,0,.24,0h.9s0,0,.15,0l.31,0h.62l.21,0a.44.44,0,0,1,.16.06.09.09,0,0,1,.06.08,3,3,0,0,1,0,.43c0,.14,0,.3-.09.5Z" transform="translate(-4.6 -5.06)"/></svg>