<svg xmlns="http://www.w3.org/2000/svg" viewBox="0 0 93 24"><defs><style>.bc83ff03-c80a-476b-9759-8fb0ba06f0e3{fill:#822929;}.b90379a3-db22-4151-8897-3047d4de274b{fill:#fff;}</style></defs><title>logo5</title><g id="ee2ad866-cfc9-4495-b8c6-df64851767cd" data-name="Capa 2"><rect class="bc83ff03-c80a-476b-9759-8fb0ba06f0e3" width="18" height="24" rx="2.82"/></g><g id="f1714685-d0ee-4a80-be13-7d5778929e19" data-name="Capa 1"><path class="b90379a3-db22-4151-8897-3047d4de274b" d="M2.6,6.47h0a1.42,1.42,0,0,0,.7,1.22l5.35,3.09a1.41,1.41,0,0,1,0,2.44L3.3,16.31a1.42,1.42,0,0,0-.7,1.22h0a1.4,1.4,0,0,0,2.11,1.22l9.58-5.53a1.4,1.4,0,0,0,0-2.44L4.71,5.25A1.4,1.4,0,0,0,2.6,6.47Z" transform="translate(0 0)"/><path class="b90379a3-db22-4151-8897-3047d4de274b" d="M25.75,7.33l.39,0,.4,0a6.79,6.79,0,0,1,1.66.33,1.48,1.48,0,0,1,.87.75l.13.26a3.82,3.82,0,0,1,.26.85,5.86,5.86,0,0,1,.08,1c0,.2,0,.41,0,.61s-.06.3-.14.29l-2.71,0s0-.07,0-.18,0-.3,0-.54V10a1.44,1.44,0,0,0-.08-.53.67.67,0,0,0-.26-.35A1,1,0,0,0,25.75,9h-.11a1.36,1.36,0,0,0-.49.08,1.09,1.09,0,0,0-.32.23,1,1,0,0,0-.2.32,2,2,0,0,0-.12.37l-.18.77-.11.69-.08.7,0,.39a2.55,2.55,0,0,0,0,.38v1.42a9,9,0,0,0,.12,1,1.38,1.38,0,0,0,.33.76l.07.05a.67.67,0,0,0,.28.16,1.11,1.11,0,0,0,.34.06h.23l.21-.05a1.16,1.16,0,0,0,.76-.82l.09-.39,2.34,0a1,1,0,0,1,.05.28c0,.14,0,.29,0,.45s0,.31,0,.44a.73.73,0,0,1-.06.28l-.09.26a1.31,1.31,0,0,1-.31.44,2.12,2.12,0,0,1-.48.35,3,3,0,0,1-.59.24,3.61,3.61,0,0,1-.61.15l-.4.05-.28,0H24.92l-.3,0-.45-.06a4,4,0,0,1-1.48-.52,2.41,2.41,0,0,1-.75-.74A2.52,2.52,0,0,1,21.6,16a5.3,5.3,0,0,0-.22-.79v-.11a1.27,1.27,0,0,0,0-.28,2.81,2.81,0,0,1,0-.29v-.22c0-.16,0-.33-.05-.5s0-.34,0-.5v-.94c0-.45,0-.89,0-1.33s.09-.88.16-1.34l.07-.42a1.62,1.62,0,0,1,.29-.84,1.8,1.8,0,0,1,.58-.52,2.58,2.58,0,0,1,.76-.31A6.17,6.17,0,0,1,24,7.43l.56-.07.47,0h.69Z" transform="translate(0 0)"/><path class="b90379a3-db22-4151-8897-3047d4de274b" d="M31.25,4.68l1.13-.14c0,.34,0,.66,0,1a6.84,6.84,0,0,0,.08.89,3.67,3.67,0,0,1,0,.46V7.3c0,.15,0,.3,0,.46s0,.32,0,.47,0,.51,0,.78,0,.52,0,.77a8.1,8.1,0,0,1,0,.84c0,.26,0,.51,0,.75l0,.72c0,.25,0,.51,0,.79v.45a1.7,1.7,0,0,1,0,.22v1.68a1.07,1.07,0,0,0,.51.13h.2l.19,0a4.65,4.65,0,0,1,.73-.08l.74,0h.58l.56,0a6.61,6.61,0,0,0,.76-.05c0,.05,0,.15,0,.29a2.5,2.5,0,0,1,0,.32v.4c0,.15,0,.29,0,.42a1,1,0,0,1-.07.33.27.27,0,0,1-.19.17H36l-.56,0a8.74,8.74,0,0,0-1.05.06c-.33,0-.67.05-1,.05h-1l-.24,0-.4,0h-1a3.33,3.33,0,0,1-.53,0,1.75,1.75,0,0,0,0-.32q0-.15,0-.33v-.74c0-.21,0-.43,0-.65s0-.43,0-.64V11.14a2.46,2.46,0,0,1,0-.26,2.35,2.35,0,0,1,0-.26V10c0-.11,0-.21,0-.31V8.42a1.41,1.41,0,0,1,0-.2V8c0-.54,0-1.07-.07-1.59s0-1-.06-1.59Z" transform="translate(0 0)"/><path class="b90379a3-db22-4151-8897-3047d4de274b" d="M42.49,7.33a3.89,3.89,0,0,1,.78.08l.73.18.13,0A1.94,1.94,0,0,1,45,8.3a3.2,3.2,0,0,1,.49,1l.06.25a.71.71,0,0,1,0,.2q0,.09,0,.21l0,.29c0,.15,0,.3,0,.45s0,.31,0,.48v.18c0,.09,0,.17,0,.26a2.17,2.17,0,0,1,0,.26V13.7c0,.19,0,.38,0,.58s0,.39,0,.58V15a4.23,4.23,0,0,1-.13.71,6,6,0,0,1-.24.68,2.51,2.51,0,0,1-1.37,1.18,6.45,6.45,0,0,1-2.07.3c-.43,0-.85,0-1.26,0a4.76,4.76,0,0,1-1.17-.25,2.94,2.94,0,0,1-1-.61,3,3,0,0,1-.7-1.11l-.08-.26a3.15,3.15,0,0,1-.18-.81c0-.33,0-.62,0-.87v-1c0-.28,0-.56,0-.84s0-.55,0-.82a2.45,2.45,0,0,1,0-.27c0-.1,0-.19,0-.28l0-.37a.49.49,0,0,1,0-.12.5.5,0,0,0,0-.12l0-.34a.93.93,0,0,1,0-.23c0-.07.06-.16.09-.25l.16-.45a1.59,1.59,0,0,1,1-1l.45-.18a8.42,8.42,0,0,1,1.48-.29c.51,0,1-.08,1.52-.08Zm-2.23,4.82c0,.14,0,.28,0,.41s0,.27,0,.41v.24c0,.06,0,.12,0,.17a1,1,0,0,1,0,.17,1,1,0,0,0,0,.17v.17l0,.45c0,.1,0,.2,0,.3a1.53,1.53,0,0,1,0,.3v.23a.25.25,0,0,1,0,.08,1.73,1.73,0,0,0,.12.4.62.62,0,0,0,.22.26,1.19,1.19,0,0,0,.39.13,5,5,0,0,0,.61,0h.31a1.65,1.65,0,0,0,.3,0,1.19,1.19,0,0,0,.62-.28,1.32,1.32,0,0,0,.33-.53,2.74,2.74,0,0,0,.13-.68c0-.25,0-.51,0-.78v-.5a1.77,1.77,0,0,0,0-.23c0-.07,0-.15,0-.23v-.22a3.85,3.85,0,0,0,0-.48,4,4,0,0,1,0-.49v-.33a1,1,0,0,1,0-.17v-.17a.22.22,0,0,0,0-.09.28.28,0,0,1,0-.09v-.28a1.18,1.18,0,0,0-.34-1,1.78,1.78,0,0,0-1-.24h-.4a2,2,0,0,0-.72.1.76.76,0,0,0-.39.3,1,1,0,0,0-.17.45,3.32,3.32,0,0,0,0,.57v.22c0,.12,0,.24,0,.38s0,.28,0,.43Z" transform="translate(0 0)"/><path class="b90379a3-db22-4151-8897-3047d4de274b" d="M52.35,6.41a8.56,8.56,0,0,1,1.32.1s0,.13,0,.26l0,.43c0,.15,0,.29,0,.42s0,.21,0,.24v.58a2.93,2.93,0,0,1,0,.41v.2a1,1,0,0,1,0,.17s0,.11,0,.17v1a1.34,1.34,0,0,1,0,.2v1.09s0,.11,0,.18a1.09,1.09,0,0,0,0,.18v.67c0,.31,0,.61,0,.88s0,.54,0,.78v.26a1.15,1.15,0,0,1,0,.18c0,.06,0,.13,0,.19,0,.23,0,.46,0,.7a4.78,4.78,0,0,1,0,.74c0,.15,0,.28,0,.4s-.14.18-.38.18H53l-.59,0-.68,0s-.08,0-.12-.08a1.09,1.09,0,0,1-.09-.21l-.07-.14a.57.57,0,0,0-.06-.15L49.48,12.1,48.58,10a.19.19,0,0,1,0-.07l-.06-.14v.29a2.53,2.53,0,0,1,0,.28c0,.09,0,.19,0,.28v3c0,.06,0,.12,0,.18a1.48,1.48,0,0,1,0,.21l0,1.05c0,.12,0,.23,0,.35s0,.22,0,.34v.44a3.58,3.58,0,0,1,0,.58l0,.29,0,.09,0,.07q-.33,0-.66,0l-.68.07a.64.64,0,0,1-.41-.1.52.52,0,0,1-.11-.39V16.2a1.15,1.15,0,0,0,0-.19v-.84c0-.06,0-.11,0-.16a.76.76,0,0,1,0-.15V13.47a1.41,1.41,0,0,0,0-.2c0-.07,0-.14,0-.2V11.38a.71.71,0,0,1,0-.15v-1c0-.1,0-.2,0-.3s0-.2,0-.3V9.23c0-.12,0-.23,0-.34V8.55c0-.06,0-.12,0-.18a1.15,1.15,0,0,1,0-.19c0-.1,0-.21,0-.31s0-.21,0-.31V7.44a1.23,1.23,0,0,1,0-.2c0-.07,0-.16,0-.28l0-.08H45.26A.31.31,0,0,1,45,6.76a.86.86,0,0,1-.13-.34,2.06,2.06,0,0,1,0-.44V5.54a.47.47,0,0,1,.11-.36.52.52,0,0,1,.29-.08h.31l.89,0h2.06c.05,0,.11.06.17.18a3.54,3.54,0,0,1,.2.43c.06.18.13.36.19.55s.12.34.18.47l.24.6L50,8.83,50,9a.94.94,0,0,0,.06.15l.53,1.18,1,2,0-.4a1.15,1.15,0,0,0,0-.19v-.48c0-.11,0-.22,0-.33s0-.21,0-.33v-.38a1.15,1.15,0,0,0,0-.19,1.09,1.09,0,0,1,0-.18v-.3a1.09,1.09,0,0,0,0-.18V8.51a2.83,2.83,0,0,0,0-.29,2.46,2.46,0,0,1,0-.28V7.62c0-.13,0-.27,0-.41s0-.31,0-.48,0-.06,0-.13a1,1,0,0,0,0-.14A7.89,7.89,0,0,1,52.35,6.41Z" transform="translate(0 0)"/><path class="b90379a3-db22-4151-8897-3047d4de274b" d="M62.18,8a.92.92,0,0,0,0,.16v.48c0,.21,0,.42,0,.63s0,.39-.07.56-.08.24-.14.24H58.61v.68l-.08,1.56a.15.15,0,0,1,0,.07.13.13,0,0,0,0,.06h1c.3,0,.59,0,.88.06l.63,0c.32,0,.64,0,.95,0a2.19,2.19,0,0,0,.05.3,1.24,1.24,0,0,1,0,.47.79.79,0,0,1-.25.43,1,1,0,0,1-.69.18h-1l-.37,0-.23,0h-.21L59,14l-.34,0h-.47l0,.86a1,1,0,0,1,0,.17v.17c0,.05,0,.11,0,.17a.86.86,0,0,0,0,.16,1.09,1.09,0,0,1,0,.18c0,.07,0,.13,0,.18s0,.24,0,.35,0,.24,0,.36a1,1,0,0,1,0,.17V17c0,.08,0,.16,0,.24a1.62,1.62,0,0,0,0,.22,2,2,0,0,1,0,.26c0,.08,0,.16,0,.24.24,0,.46,0,.66.05l.71,0h5.32c0,.46-.08,1-.14,1.71h-.82l-.95,0h-.33l-1,0c-.34,0-.69,0-1,0H60c-.84,0-1.79,0-2.84-.1H57l-.66,0h-.7L55.55,19l.09-.79,0-.47a8.24,8.24,0,0,1,0-.85c0-.06,0-.11,0-.18a1.09,1.09,0,0,0,0-.18c0-.41,0-.82,0-1.24v-.34c0-.18,0-.36,0-.54V13.17c0-.28,0-.54,0-.79s0-.48,0-.73v-.31c0-.18,0-.36,0-.54s0-.36,0-.57h-.14l-.62,0h-.3c0-.15,0-.29,0-.4s0-.26,0-.42,0-.39,0-.63,0-.49,0-.77c0-.06,0-.12,0-.19a1.28,1.28,0,0,1,0-.19h4.77c.61,0,1.13,0,1.58.05a4.75,4.75,0,0,1,1,.13A.81.81,0,0,1,62.18,8Z" transform="translate(0 0)"/><path class="b90379a3-db22-4151-8897-3047d4de274b" d="M68.31,6.51H65.54V9a1.77,1.77,0,0,0,0,.23c0,.07,0,.15,0,.22v1.46a.53.53,0,0,0,0,.13v.85c0,.12,0,.24,0,.35s0,.24,0,.36a1.48,1.48,0,0,0,0,.21c0,.06,0,.13,0,.21v.48a1.21,1.21,0,0,1,0,.19V14a1.41,1.41,0,0,0,0,.2,1.41,1.41,0,0,1,0,.2v.29a1.34,1.34,0,0,0,0,.21v.65c0,.19,0,.38,0,.57s0,.37,0,.55-.06.14-.17.17a1.93,1.93,0,0,1-.41.09,4,4,0,0,1-.5,0H64l-.15,0h-.21a.59.59,0,0,1-.36-.11c-.11-.07-.17-.25-.17-.53V16c0-.22,0-.46,0-.71s0-.49,0-.74v-.31c0-.29,0-.57,0-.86s0-.57,0-.86v-.31c0-.19,0-.38,0-.58s0-.38,0-.58V7.15c0-.14,0-.28,0-.42V6.6a8.44,8.44,0,0,1-.87,0l-.64,0h-.47l-.55,0a.44.44,0,0,1-.23,0,.18.18,0,0,1-.09-.13.47.47,0,0,1,0-.17.91.91,0,0,0,0-.17c0-.17,0-.35,0-.54a3.09,3.09,0,0,1,0-.54.88.88,0,0,1,.15-.42A.4.4,0,0,1,61,4.3h.49q.88,0,1.77,0c.59,0,1.28,0,2.06,0h2l1.06,0Z" transform="translate(0 0)"/><path class="b90379a3-db22-4151-8897-3047d4de274b" d="M67.77,7.5l.84,0,.82,0h.64a3.73,3.73,0,0,1,0,.57,3.6,3.6,0,0,0,0,.56,1.34,1.34,0,0,0,0,.2.6.6,0,0,1,0,.19c0,.09,0,.17,0,.25l0,.25-.13,1.76a6,6,0,0,0,0,.75c0,.23,0,.46,0,.68s0,.45,0,.68,0,.3,0,.44,0,.29,0,.43l.08.89a.75.75,0,0,0,.34.73,1.66,1.66,0,0,0,.75.18,4.37,4.37,0,0,0,.71,0,.69.69,0,0,0,.36-.19.74.74,0,0,0,.14-.36c0-.15,0-.34,0-.57v-.61a2.09,2.09,0,0,0,0-.25c0-.08,0-.16,0-.25v-1c0-.13,0-.26,0-.39v-.92c0-.13,0-.26,0-.39s0-.25,0-.38V8.86c0-.21,0-.41,0-.59s0-.31,0-.41l2.26,0V8.8c0,.25,0,.5,0,.75s0,.39,0,.59,0,.4,0,.59v4a1.93,1.93,0,0,1,0,.24,2.64,2.64,0,0,1-.73,2,3.14,3.14,0,0,1-2,.87l-.52,0-.25,0H69.69l-.25,0L69,17.81a3.79,3.79,0,0,1-1.11-.33,1.44,1.44,0,0,1-.73-.83l-.06-.29,0-.34a.9.9,0,0,1,0-.18v-.19c0-.19,0-.39,0-.6s0-.4,0-.59V10.23a.61.61,0,0,1,0-.14A.49.49,0,0,0,67,10V8.33a1.15,1.15,0,0,1,0-.19V7.47Z" transform="translate(0 0)"/><path class="b90379a3-db22-4151-8897-3047d4de274b" d="M79.23,16.78h-1l-.1,0H78l-.64,0-.79-.06-.91-.08,0-2.07v-.37c0-.27,0-.55,0-.82s0-.54,0-.82v-2c0-.13,0-.26,0-.38l0-.81V8.09a6.13,6.13,0,0,1,0-.62c0-.2,0-.41,0-.62a.27.27,0,0,0-.18-.1l-.19,0a1.73,1.73,0,0,0-.32,0l-.31,0h-.16c0-.21,0-.45,0-.71V5.39A.4.4,0,0,1,75,5.3l.24,0h1.34l.66,0h1.66l1.13.08a3.21,3.21,0,0,1,.67.07,2.11,2.11,0,0,1,.55.22l.2.15A1.31,1.31,0,0,1,82,6.6a7.73,7.73,0,0,1,.07,1.12v.45a.37.37,0,0,1,0,.11s0,.07,0,.11v1a2.54,2.54,0,0,1-.17.87l-.07.12a1.12,1.12,0,0,1-.18.2,1.93,1.93,0,0,1-.21.17l.12.08.24.13a4.85,4.85,0,0,1,.43.3.54.54,0,0,1,.21.41l0,.22a2.43,2.43,0,0,1,0,.3,1.77,1.77,0,0,1,0,.32l0,.38s0,.09,0,.13a.57.57,0,0,1,0,.13v.13a1.21,1.21,0,0,0,0,.19c0,.07,0,.13,0,.2v.12a.62.62,0,0,1,0,.13v.39a.91.91,0,0,1,0,.23.31.31,0,0,0,0,.19.46.46,0,0,1,0,.14,1.14,1.14,0,0,1-.17.58c-.12.19-.23.36-.35.52l-.19.23a1.72,1.72,0,0,1-1,.48,6.78,6.78,0,0,1-1.2.1Zm-1-4.13a.38.38,0,0,1,0,.1s0,.06,0,.08v.67a1.34,1.34,0,0,0,0,.2V15c0,.1,0,.2,0,.31l.33,0h1.17a1.23,1.23,0,0,0,.5-.13l.05,0a.66.66,0,0,0,.29-.34,1.5,1.5,0,0,0,.07-.44v-.27a1.79,1.79,0,0,0,0-.23,1.64,1.64,0,0,1,0-.22V13.5l0-.33a2.52,2.52,0,0,0,0-.48,2.4,2.4,0,0,1,0-.46V12.1a.5.5,0,0,0-.28-.38.89.89,0,0,0-.46-.13h-.58a1,1,0,0,0-.24,0h-.16l-.25,0-.25.05Zm.4-6a.92.92,0,0,1-.29,0l0,.45c0,.12,0,.23,0,.34v.57c0,.11,0,.24,0,.37V10a1.69,1.69,0,0,0,0,.23l.19,0,.3,0h.51a3,3,0,0,0,.4,0,1,1,0,0,0,.39-.12l.09-.21a4.91,4.91,0,0,0,.23-1.47V8.38a.28.28,0,0,1,0-.09s0-.06,0-.09V8.07a2.73,2.73,0,0,0,0-.41,1.63,1.63,0,0,0-.1-.41l-.1-.16A.35.35,0,0,0,80.05,7l-.16-.12-.16-.11-.23,0a.75.75,0,0,1-.21,0,.82.82,0,0,0-.22,0h-.16A1,1,0,0,0,78.63,6.66Z" transform="translate(0 0)"/><path class="b90379a3-db22-4151-8897-3047d4de274b" d="M90.52,8v.64c0,.21,0,.42,0,.63a4.37,4.37,0,0,1-.06.56q-.06.24-.15.24H87v.68l-.08,1.56a.15.15,0,0,1,0,.07v.06h1c.29,0,.59,0,.88.06l.62,0c.33,0,.64,0,.95,0a2.19,2.19,0,0,0,.05.3.94.94,0,0,1,0,.47.74.74,0,0,1-.25.43,1,1,0,0,1-.68.18h-1l-.38,0-.23,0h-.2l-.39,0L87,14h-.46l0,.86c0,.05,0,.11,0,.17a1,1,0,0,0,0,.17,1,1,0,0,1,0,.17v.16c0,.06,0,.12,0,.18a1.21,1.21,0,0,0,0,.18c0,.12,0,.24,0,.35s0,.24,0,.36,0,.11,0,.17a1,1,0,0,0,0,.17,1.93,1.93,0,0,1,0,.24c0,.07,0,.15,0,.22v.26a1.93,1.93,0,0,0,0,.24c.23,0,.45,0,.65.05l.72,0H93q0,.69-.15,1.71H92l-1,0h-.32l-1,0c-.34,0-.68,0-1,0h-.42c-.83,0-1.78,0-2.83-.1h-.15l-.65,0H84l-.1-.79.1-.79,0-.47a6.15,6.15,0,0,1,0-.85,1.15,1.15,0,0,1,0-.18V16.5c0-.41,0-.82,0-1.24v-.34c0-.18,0-.36,0-.54s0-.35,0-.54v-.67c0-.28,0-.54,0-.79s0-.48,0-.73v-.31c0-.18,0-.36,0-.54s0-.36,0-.57h-.15l-.61,0h-.31c0-.15,0-.29,0-.4s0-.26,0-.42,0-.39,0-.63,0-.49,0-.77V7.87a1.28,1.28,0,0,1,0-.19H88c.6,0,1.13,0,1.57.05a4.56,4.56,0,0,1,1,.13A.81.81,0,0,1,90.52,8Z" transform="translate(0 0)"/></g></svg>