<svg xmlns="http://www.w3.org/2000/svg" viewBox="0 0 78 24"><defs><style>.ae17d5ae-3115-421a-b987-cb0ca6cedf98{fill:#822929;}.e9754467-094b-4893-b303-3a03fd8bbc28{fill:#fff;}</style></defs><title>logo4</title><g id="a8e1899c-bfff-46cb-a4f0-66a058eb347a" data-name="Capa 2"><rect class="ae17d5ae-3115-421a-b987-cb0ca6cedf98" width="78" height="24"/></g><g id="ffef8c8e-acc9-4e32-8e33-89ca77f68f2e" data-name="Capa 1"><path class="e9754467-094b-4893-b303-3a03fd8bbc28" d="M4.6,6.47h0a1.42,1.42,0,0,0,.7,1.22l5.35,3.09a1.41,1.41,0,0,1,0,2.44L5.3,16.31a1.42,1.42,0,0,0-.7,1.22h0a1.4,1.4,0,0,0,2.11,1.22l9.58-5.53a1.4,1.4,0,0,0,0-2.44L6.71,5.25A1.4,1.4,0,0,0,4.6,6.47Z" transform="translate(0 0)"/><path class="e9754467-094b-4893-b303-3a03fd8bbc28" d="M21.78,8.54l.29,0,.3,0a5,5,0,0,1,1.23.24,1.17,1.17,0,0,1,.65.56l.1.19a3.18,3.18,0,0,1,.19.64,4,4,0,0,1,.06.72c0,.15,0,.3,0,.45s-.05.23-.11.22l-2,0v-.13c0-.09,0-.22,0-.41v-.48a1.14,1.14,0,0,0-.06-.39.6.6,0,0,0-.2-.27.76.76,0,0,0-.41-.09h-.09a1,1,0,0,0-.36.06,1,1,0,0,0-.24.17,1,1,0,0,0-.15.24c0,.08-.06.18-.09.27l-.13.58-.08.51-.06.52,0,.29c0,.1,0,.2,0,.29v1c0,.26.05.51.09.77a1,1,0,0,0,.25.56l.05,0a.42.42,0,0,0,.21.12.79.79,0,0,0,.25.05h.17l.16,0a.86.86,0,0,0,.56-.61l.07-.29,1.74,0a.63.63,0,0,1,0,.21c0,.1,0,.21,0,.33v.33a.46.46,0,0,1-.05.21l-.07.2a.9.9,0,0,1-.23.33,1.36,1.36,0,0,1-.36.25,1.63,1.63,0,0,1-.43.18,2.93,2.93,0,0,1-.45.11l-.3,0-.21,0h-.88l-.22,0-.34,0a3,3,0,0,1-1.1-.38,1.84,1.84,0,0,1-.56-.55,1.89,1.89,0,0,1-.25-.63c-.05-.21-.1-.41-.16-.59V14.3a1.49,1.49,0,0,0,0-.21c0-.07,0-.14,0-.21v-.17c0-.12,0-.24,0-.37s0-.25,0-.37v-.7c0-.33,0-.66,0-1a9.06,9.06,0,0,1,.12-1l.05-.31a1.18,1.18,0,0,1,.21-.63A1.49,1.49,0,0,1,19.31,9a1.87,1.87,0,0,1,.56-.22,4.83,4.83,0,0,1,.62-.12l.42,0h.87Z" transform="translate(0 0)"/><path class="e9754467-094b-4893-b303-3a03fd8bbc28" d="M25.87,6.57l.84-.11c0,.26,0,.5,0,.72a4.91,4.91,0,0,0,.06.66c0,.12,0,.23,0,.34v.34c0,.11,0,.22,0,.34s0,.24,0,.35,0,.38,0,.58,0,.39,0,.57a4.61,4.61,0,0,1,0,.63c0,.19,0,.38,0,.56s0,.36,0,.54,0,.37,0,.58V13a1,1,0,0,1,0,.17v1.25a.86.86,0,0,0,.38.1h.14l.15,0,.54-.06h1.4l.57,0a2,2,0,0,0,0,.21,1.25,1.25,0,0,1,0,.24v.3a3,3,0,0,1,0,.31,1.37,1.37,0,0,1-.05.25.22.22,0,0,1-.14.13l-.4,0H29c-.27,0-.53,0-.78,0a6.3,6.3,0,0,1-.75.05H26.7l-.18,0-.3,0h-.71a1.9,1.9,0,0,1-.4,0,.91.91,0,0,0,0-.23c0-.08,0-.16,0-.25v-1c0-.17,0-.33,0-.48V11.37c0-.06,0-.13,0-.19v-.85a1.69,1.69,0,0,0,0-.23V9.5a.76.76,0,0,0,0-.15V9c0-.4,0-.79-.05-1.18s0-.78,0-1.18Z" transform="translate(0 0)"/><path class="e9754467-094b-4893-b303-3a03fd8bbc28" d="M34.23,8.54a2.74,2.74,0,0,1,.59.06l.54.13.1,0a1.35,1.35,0,0,1,.63.51,2.26,2.26,0,0,1,.36.73l0,.2a.32.32,0,0,1,0,.14c0,.05,0,.1,0,.16l0,.21a2,2,0,0,1,0,.34c0,.11,0,.23,0,.36v.13a1.21,1.21,0,0,0,0,.19v1.55c0,.14,0,.29,0,.43s0,.29,0,.43v.11a3.29,3.29,0,0,1-.1.53,2.13,2.13,0,0,1-.18.5,1.79,1.79,0,0,1-1,.88,4.73,4.73,0,0,1-1.53.23c-.32,0-.64,0-.94,0a3.06,3.06,0,0,1-.87-.18,2,2,0,0,1-.73-.45,2.19,2.19,0,0,1-.52-.83l-.06-.19a2,2,0,0,1-.13-.61,5.21,5.21,0,0,1,0-.64v-.73c0-.21,0-.42,0-.63s0-.41,0-.61a1.41,1.41,0,0,1,0-.2,1.55,1.55,0,0,0,0-.21l0-.27a.2.2,0,0,1,0-.09s0-.06,0-.09l0-.26a.45.45,0,0,1,0-.16l.07-.2.12-.33A1.15,1.15,0,0,1,31.56,9l.33-.13A5.9,5.9,0,0,1,33,8.6a10.55,10.55,0,0,1,1.13-.06Zm-1.65,3.59c0,.1,0,.2,0,.3s0,.21,0,.31v.18a.62.62,0,0,0,0,.13v.12s0,.08,0,.13,0,.08,0,.12l0,.34a1.64,1.64,0,0,0,0,.22,1.8,1.8,0,0,1,0,.22v.18a.11.11,0,0,1,0,0,1.07,1.07,0,0,0,.09.3.38.38,0,0,0,.16.19.7.7,0,0,0,.29.1,3,3,0,0,0,.45,0h.23l.23,0a.85.85,0,0,0,.46-.21,1,1,0,0,0,.24-.39,1.92,1.92,0,0,0,.1-.51c0-.19,0-.38,0-.58v-.38s0-.11,0-.16,0-.12,0-.17v-.17c0-.12,0-.24,0-.36a2.17,2.17,0,0,1,0-.36V11.6a.62.62,0,0,0,0-.13v-.25s0-.05,0-.07,0,0,0-.07v-.2c0-.38-.08-.62-.25-.74a1.33,1.33,0,0,0-.77-.18h-.3A1.52,1.52,0,0,0,33,10a.61.61,0,0,0-.29.22.78.78,0,0,0-.13.34,2.77,2.77,0,0,0,0,.42v.17a2.72,2.72,0,0,1,0,.28v.68Z" transform="translate(0 0)"/><path class="e9754467-094b-4893-b303-3a03fd8bbc28" d="M41.58,7.86a6.55,6.55,0,0,1,1,.07s0,.1,0,.2l0,.31c0,.12,0,.22,0,.32a1.53,1.53,0,0,1,0,.18v.43a1.62,1.62,0,0,1,0,.3v.15a.49.49,0,0,1,0,.12v.86a.86.86,0,0,1,0,.15v.81s0,.08,0,.13,0,.09,0,.13v.5c0,.24,0,.45,0,.66s0,.4,0,.58V14a.57.57,0,0,1,0,.13v.66a2.7,2.7,0,0,1,0,.56,1.39,1.39,0,0,1,0,.3c0,.08-.1.13-.28.13h-.56l-.51,0a.09.09,0,0,1-.08-.06.84.84,0,0,1-.07-.16l0-.1a.38.38,0,0,0,0-.11l-1.44-3.16-.67-1.53s0,0,0-.06a.49.49,0,0,0,0-.1v.22a1.48,1.48,0,0,1,0,.21v2.59a.81.81,0,0,1,0,.16l0,.78c0,.09,0,.17,0,.26s0,.17,0,.26v.32a2.86,2.86,0,0,1,0,.43l0,.22a.14.14,0,0,1,0,.06.14.14,0,0,0,0,.06l-.5,0-.5,0a.49.49,0,0,1-.31-.07.42.42,0,0,1-.07-.29v-.54c0-.05,0-.09,0-.14s0-.09,0-.14v-.6a.49.49,0,0,1,0-.12V13a.76.76,0,0,1,0-.15V11.67a.37.37,0,0,0,0-.11v-.87a1.62,1.62,0,0,0,0-.22V10c0-.09,0-.18,0-.26s0-.16,0-.25V9.31a.57.57,0,0,1,0-.13V8.94a1.69,1.69,0,0,1,0-.23.44.44,0,0,0,0-.09.86.86,0,0,0,0-.15c0-.05,0-.12,0-.21l0-.06H36.3a.22.22,0,0,1-.21-.11.57.57,0,0,1-.1-.25,1.66,1.66,0,0,1,0-.32V7.21q0-.21.09-.27a.33.33,0,0,1,.21-.06h.23l.67,0h1.53s.08,0,.13.13a2.73,2.73,0,0,1,.14.33c0,.12.1.26.15.4a2.65,2.65,0,0,0,.13.35l.18.45.39,1.14,0,.1a.49.49,0,0,0,0,.11l.39.88L41,12.26V12c0-.05,0-.09,0-.14s0-.09,0-.14v-.46A1.85,1.85,0,0,1,41,11v-.43a.61.61,0,0,1,0-.14V10.2a.61.61,0,0,0,0-.14V9.42c0-.08,0-.15,0-.21A1.49,1.49,0,0,1,41,9V8.76c0-.1,0-.2,0-.31s0-.23,0-.35a.59.59,0,0,1,0-.11.46.46,0,0,0,0-.1Z" transform="translate(0 0)"/><path class="e9754467-094b-4893-b303-3a03fd8bbc28" d="M48.89,9.06v.47c0,.16,0,.31,0,.47a2.48,2.48,0,0,1,0,.41c0,.12-.06.18-.11.18H46.23v.51l-.06,1.16v.05a.09.09,0,0,0,0,0h.78c.22,0,.43,0,.65.05l.47,0c.24,0,.47,0,.71,0a1.49,1.49,0,0,0,0,.22.69.69,0,0,1,0,.35.55.55,0,0,1-.18.32.76.76,0,0,1-.51.14h-.74l-.27,0-.18,0h-.43a1.18,1.18,0,0,1-.26,0h-.34l0,.64a.62.62,0,0,1,0,.13v.12a.62.62,0,0,1,0,.13v.12s0,.09,0,.14,0,.09,0,.13a2.26,2.26,0,0,1,0,.26,2.44,2.44,0,0,0,0,.27.49.49,0,0,1,0,.12v.13a1.09,1.09,0,0,1,0,.18v.17c0,.07,0,.13,0,.19s0,.11,0,.18l.49,0,.53,0h4c0,.34-.06.76-.1,1.27H49.07l-.73,0-.77,0h-.32c-.62,0-1.32,0-2.11-.07H45l-.48,0H44L44,17.2l.08-.58,0-.35a4.68,4.68,0,0,1,0-.64V15.5a.62.62,0,0,0,0-.13c0-.31,0-.61,0-.93v-.25c0-.13,0-.27,0-.4s0-.27,0-.4v-.51c0-.2,0-.4,0-.58a4.87,4.87,0,0,0,0-.54v-.23c0-.14,0-.27,0-.4s0-.28,0-.43h-.11l-.45,0h-.23a2.63,2.63,0,0,0,0-.3,3.11,3.11,0,0,1,0-.32c0-.13,0-.29,0-.46s0-.37,0-.58a.71.71,0,0,0,0-.14V8.8H47q.67,0,1.17,0a3.33,3.33,0,0,1,.74.11A.49.49,0,0,1,48.89,9.06Z" transform="translate(0 0)"/><path class="e9754467-094b-4893-b303-3a03fd8bbc28" d="M53.46,7.93H51.39V9.8c0,.06,0,.11,0,.17s0,.11,0,.17v1.18a.31.31,0,0,1,0,.1v.79a2.44,2.44,0,0,1,0,.27.76.76,0,0,0,0,.15V13a.81.81,0,0,0,0,.16v.35s0,.09,0,.15,0,.1,0,.15v.37a.76.76,0,0,1,0,.15v.75c0,.14,0,.28,0,.42s0,.1-.13.12a1.67,1.67,0,0,1-.3.07,2.31,2.31,0,0,1-.37,0H50a.56.56,0,0,1-.27-.08c-.08-.06-.12-.19-.12-.4V15c0-.17,0-.34,0-.53s0-.36,0-.55v-.23c0-.21,0-.43,0-.64s0-.42,0-.64v-.66c0-.14,0-.29,0-.43V8.41c0-.11,0-.21,0-.31V8A4.73,4.73,0,0,1,49,8l-.48,0h-.35l-.4,0a.4.4,0,0,1-.18,0,.13.13,0,0,1-.06-.1.49.49,0,0,1,0-.12s0-.09,0-.13,0-.26,0-.41a2.61,2.61,0,0,1,0-.4.71.71,0,0,1,.11-.31A.32.32,0,0,1,48,6.28h.36l1.32,0,1.53,0h2.26Z" transform="translate(0 0)"/><path class="e9754467-094b-4893-b303-3a03fd8bbc28" d="M53.06,8.67l.62,0,.61,0h.48a3,3,0,0,1,0,.42,3.19,3.19,0,0,0,0,.42.76.76,0,0,0,0,.15.66.66,0,0,1,0,.14v.19c0,.06,0,.12,0,.18l-.1,1.31a5.17,5.17,0,0,0,0,.57,4.32,4.32,0,0,1,0,.5c0,.17,0,.34,0,.5s0,.23,0,.33v.32l.06.66a.57.57,0,0,0,.26.55,1.19,1.19,0,0,0,.56.14,3.22,3.22,0,0,0,.52,0,.44.44,0,0,0,.27-.14.46.46,0,0,0,.1-.27c0-.11,0-.25,0-.42V13.8a1.15,1.15,0,0,0,0-.19V13a2.71,2.71,0,0,0,0-.29v-1c0-.1,0-.2,0-.29s0-.19,0-.29V9.24c0-.13,0-.23,0-.3l1.68,0v.68c0,.18,0,.36,0,.56s0,.29,0,.43,0,.3,0,.44v3a1.09,1.09,0,0,1,0,.18,2,2,0,0,1-.54,1.46,2.33,2.33,0,0,1-1.47.64l-.39,0H54.3l-.34,0a3.09,3.09,0,0,1-.83-.25,1.09,1.09,0,0,1-.54-.61l0-.22,0-.25a.57.57,0,0,1,0-.13v-.15c0-.14,0-.29,0-.44s0-.3,0-.45V10.7s0-.07,0-.1,0-.06,0-.1V9.15a.66.66,0,0,0,0-.14V8.65C52.67,8.65,52.85,8.65,53.06,8.67Z" transform="translate(0 0)"/><path class="e9754467-094b-4893-b303-3a03fd8bbc28" d="M61.58,15.57h-.77l-.07,0h-.06l-.48,0-.59,0-.67-.06,0-1.54v-.28c0-.2,0-.41,0-.61a6.08,6.08,0,0,0,0-.61V11c0-.1,0-.2,0-.29s0-.4,0-.6,0-.41,0-.61V9.1c0-.16,0-.31,0-.46s0-.3,0-.46A.27.27,0,0,0,59,8.11h-.38a.93.93,0,0,1-.23,0h-.12c0-.15,0-.33,0-.53V7.1A.27.27,0,0,1,58.46,7l.18,0h1a4,4,0,0,0,.49,0h1.24l.84.06a2.31,2.31,0,0,1,.49,0,1.48,1.48,0,0,1,.42.17l.14.1a1,1,0,0,1,.4.64,5.21,5.21,0,0,1,.06.83v.33s0,.06,0,.09V9.5c0,.14,0,.34,0,.58a1.62,1.62,0,0,1-.13.64l0,.09-.14.15-.15.12.08.06.18.1a2.79,2.79,0,0,1,.32.23.38.38,0,0,1,.16.3l0,.17a1.09,1.09,0,0,1,0,.22,1.85,1.85,0,0,1,0,.23l0,.29v.1a.28.28,0,0,1,0,.09v.24a.76.76,0,0,1,0,.15.28.28,0,0,0,0,.09v.39a.44.44,0,0,1,0,.16.19.19,0,0,0,0,.15.31.31,0,0,1,0,.11.76.76,0,0,1-.13.42c-.08.14-.17.27-.25.39l-.15.17a1.3,1.3,0,0,1-.72.36,5.37,5.37,0,0,1-.9.07Zm-.74-3.07s0,.05,0,.07V13s0,.1,0,.15,0,.09,0,.14v1a2,2,0,0,0,0,.23h1.11a1,1,0,0,0,.37-.09l0,0a.52.52,0,0,0,.22-.25,1.08,1.08,0,0,0,0-.32v-.21a1,1,0,0,0,0-.17.86.86,0,0,1,0-.16v-.12l0-.26a2.09,2.09,0,0,0,0-.35,1.37,1.37,0,0,1,0-.34v-.1a.39.39,0,0,0-.21-.29.72.72,0,0,0-.34-.09h-.43l-.18,0h-.12l-.19,0-.18,0ZM61.14,8a.83.83,0,0,1-.22,0l0,.34c0,.09,0,.17,0,.25v.42c0,.09,0,.18,0,.28v1.13s0,.11,0,.17l.15,0,.22,0h.68a1,1,0,0,0,.29-.09l.07-.16a3.7,3.7,0,0,0,.17-1.09V9.25a.13.13,0,0,0,0-.06v-.1c0-.1,0-.2,0-.3a1.18,1.18,0,0,0-.08-.31l-.07-.12-.1-.1-.12-.09L62,8.08l-.16,0-.17,0-.16,0h-.12Z" transform="translate(0 0)"/><path class="e9754467-094b-4893-b303-3a03fd8bbc28" d="M70,9.06a.49.49,0,0,0,0,.12v.35c0,.16,0,.31,0,.47a2.42,2.42,0,0,1,0,.41c0,.12-.06.18-.11.18H67.33v.51l-.06,1.16a.09.09,0,0,1,0,.05v0H68c.22,0,.44,0,.66.05l.46,0c.24,0,.48,0,.71,0a.92.92,0,0,0,0,.22,1,1,0,0,1,0,.35.63.63,0,0,1-.19.32.76.76,0,0,1-.51.14h-.73l-.28,0-.17,0h-.44a1.1,1.1,0,0,1-.25,0H67l0,.64s0,.08,0,.13,0,.08,0,.12v.13a.49.49,0,0,0,0,.12v.14a.57.57,0,0,0,0,.13,2.26,2.26,0,0,1,0,.26,2.44,2.44,0,0,0,0,.27s0,.08,0,.12,0,.09,0,.13v.18a.91.91,0,0,0,0,.17v.19a1,1,0,0,0,0,.18l.49,0,.53,0h4c0,.34-.06.76-.11,1.27H70.16l-.72,0-.78,0h-.31c-.62,0-1.33,0-2.11-.07h-.11l-.49,0h-.52l-.07-.59.07-.58,0-.35c0-.21,0-.42,0-.64a.62.62,0,0,1,0-.13v-.13c0-.31,0-.61,0-.93v-.25c0-.13,0-.27,0-.4v-.91c0-.2,0-.4,0-.58s0-.36,0-.54v-.23c0-.14,0-.27,0-.4l0-.43h-.11l-.46,0h-.22a2.36,2.36,0,0,0,0-.3c0-.09,0-.2,0-.32s0-.29,0-.46,0-.37,0-.58c0,0,0-.09,0-.14s0-.1,0-.14h3.56q.66,0,1.17,0a3.22,3.22,0,0,1,.73.11Z" transform="translate(0 0)"/></g></svg>